# xmcd
#
# Track frame offsets: 
#        183
#        12145
#        24583
#        37533
#        51695
#        65395
#        76458
#        89995
#        104158
#        115458
#        127058
#        136783
#        145995
#        160183
#        171208
#        185370
#        195795
#        206120
#        217095
#        229945
#        241008
#        251345
#        263420
#        278120
#        285958
#        298470
#        309208
#        318845
#
# Disc length: 4371 seconds
#
# Revision: 2
# Processed by: cddbd v1.5.1PL0 Copyright (c) Steve Scherf et al.
# Submitted via: ExactAudioCopy v0.90b4
#
DISCID=9911111c
DTITLE=J.B.Lenoir - J.B.Lenoir [Roots]
DYEAR=1990
DGENRE=Blues
TTITLE0=Carrie Lee
TTITLE1=Korea Blues
TTITLE2=Eisenhower Blues
TTITLE3=Man Watch Your Woman
TTITLE4=I'm In Korea
TTITLE5=Mama Talk To Your Daughter
TTITLE6=Sitting Down Thinking
TTITLE7=Don't Dog Your Woman
TTITLE8=Natural Man
TTITLE9=If I Give My Love To You
TTITLE10=Let Me Die With The One I Love
TTITLE11=Mama Your Daughter's Going To Miss Me
TTITLE12=What Have I Done
TTITLE13=Mama What About Your Daughter
TTITLE14=We Can't Go On This Way
TTITLE15=Give One More Shot
TTITLE16=Everybody Want's To Know
TTITLE17=J.B.'s Rock [Instrumental]
TTITLE18=If You Love Me
TTITLE19=Low Down Dirty Shame
TTITLE20=Don't Touch My Head
TTITLE21=When I Am Drinking
TTITLE22=I've Been Down For So Long
TTITLE23=Five Years
TTITLE24=Daddy Talk To Your Son
TTITLE25=I Don't Know
TTITLE26=Good Looking Woman
TTITLE27=Voodoo Boogie
EXTD=Label: MoviePlay\nCode: RTS 33027\nCollection: "ROOTS"\n(Made in 
EXTD=Brazil)
EXTT0=
EXTT1=
EXTT2=
EXTT3=
EXTT4=
EXTT5=
EXTT6=
EXTT7=
EXTT8=
EXTT9=
EXTT10=
EXTT11=
EXTT12=
EXTT13=
EXTT14=
EXTT15=
EXTT16=
EXTT17=
EXTT18=
EXTT19=
EXTT20=
EXTT21=
EXTT22=
EXTT23=
EXTT24=
EXTT25=
EXTT26=
EXTT27=
PLAYORDER=
